<?xml version="1.0" encoding="UTF-8" standalone="no"?>
<svg
   viewBox="0 0 974.6909 655.14176"
   width="158.65401"
   height="120.808"
   version="1.1"
   id="svg999"
   sodipodi:docname="architecture_overview_details.svg"
   inkscape:version="1.1.2 (b8e25be833, 2022-02-05)"
   inkscape:export-filename="\\wsl$\Ubuntu-20.04\home\ubuntu\work\github\jsc-jupyter\jupyterlab-data-mount\docs\docs\images\architecture_overview_details.png"
   inkscape:export-xdpi="91.890701"
   inkscape:export-ydpi="91.890701"
   xmlns:inkscape="http://www.inkscape.org/namespaces/inkscape"
   xmlns:sodipodi="http://sodipodi.sourceforge.net/DTD/sodipodi-0.dtd"
   xmlns="http://www.w3.org/2000/svg"
   xmlns:svg="http://www.w3.org/2000/svg"
   xmlns:rdf="http://www.w3.org/1999/02/22-rdf-syntax-ns#"
   xmlns:cc="http://creativecommons.org/ns#"
   xmlns:dc="http://purl.org/dc/elements/1.1/"
   xmlns:figma="http://www.figma.com/figma/ns">
  <sodipodi:namedview
     id="namedview1001"
     pagecolor="#ffffff"
     bordercolor="#666666"
     borderopacity="1.0"
     inkscape:pageshadow="2"
     inkscape:pageopacity="0.0"
     inkscape:pagecheckerboard="0"
     showgrid="false"
     inkscape:zoom="5.03125"
     inkscape:cx="49.391304"
     inkscape:cy="82.68323"
     inkscape:window-width="1536"
     inkscape:window-height="801"
     inkscape:window-x="-8"
     inkscape:window-y="-8"
     inkscape:window-maximized="1"
     inkscape:current-layer="svg999">
    <inkscape:grid
       type="xygrid"
       id="grid44331" />
  </sodipodi:namedview>
  <defs
     id="defs993">
    <rect
       x="22.419153"
       y="34.479614"
       width="45.556004"
       height="17.992437"
       id="rect68464" />
    <rect
       x="19.46273"
       y="36.85265"
       width="11.145964"
       height="0.91132629"
       id="rect66676" />
    <rect
       x="-9.9378881"
       y="53.068321"
       width="35.378883"
       height="17.689442"
       id="rect29759" />
    <rect
       x="-6.3602486"
       y="56.447205"
       width="7.9503107"
       height="0.19875775"
       id="rect27443" />
    <marker
       style="overflow:visible"
       id="Arrow2Lend"
       refX="0"
       refY="0"
       orient="auto"
       inkscape:stockid="Arrow2Lend"
       inkscape:isstock="true">
      <path
         transform="matrix(-1.1,0,0,-1.1,-1.1,0)"
         d="M 8.7185878,4.0337352 -2.2072895,0.01601326 8.7185884,-4.0017078 c -1.7454984,2.3720609 -1.7354408,5.6174519 -6e-7,8.035443 z"
         style="fill:context-stroke;fill-rule:evenodd;stroke:context-stroke;stroke-width:0.625;stroke-linejoin:round"
         id="path21286" />
    </marker>
    <marker
       style="overflow:visible"
       id="Arrow1Lend"
       refX="0"
       refY="0"
       orient="auto"
       inkscape:stockid="Arrow1Lend"
       inkscape:isstock="true">
      <path
         transform="matrix(-0.8,0,0,-0.8,-10,0)"
         style="fill:context-stroke;fill-rule:evenodd;stroke:context-stroke;stroke-width:1pt"
         d="M 0,0 5,-5 -12.5,0 5,5 Z"
         id="path21268" />
    </marker>
    <rect
       x="57.043476"
       y="-22.658384"
       width="38.360249"
       height="39.95031"
       id="rect12812" />
    <rect
       x="-55.850933"
       y="5.5652175"
       width="43.925465"
       height="22.26087"
       id="rect2881" />
    <style
       id="style991">.cls-1{fill-rule:evenodd;}</style>
    <rect
       x="-55.850933"
       y="5.5652175"
       width="43.925465"
       height="22.26087"
       id="rect2881-4" />
    <rect
       x="57.043476"
       y="-22.658384"
       width="38.360249"
       height="39.95031"
       id="rect12812-1" />
    <rect
       x="57.043476"
       y="-22.658384"
       width="38.360249"
       height="39.95031"
       id="rect12812-1-8" />
    <rect
       x="-9.9378881"
       y="53.068321"
       width="35.794518"
       height="21.123432"
       id="rect29759-5" />
    <rect
       x="-9.9378881"
       y="53.068321"
       width="36.647697"
       height="30.862562"
       id="rect29759-5-0" />
    <rect
       x="22.419153"
       y="34.479614"
       width="45.556004"
       height="17.992437"
       id="rect68464-0" />
    <rect
       x="57.043476"
       y="-22.658384"
       width="38.360249"
       height="39.95031"
       id="rect12812-1-8-8" />
    <rect
       x="57.043476"
       y="-22.658384"
       width="38.360249"
       height="39.95031"
       id="rect12812-1-8-9" />
  </defs>
  <title
     id="title995">cloud-storage</title>
  <metadata
     id="metadata30870">
    <rdf:RDF>
      <cc:Work
         rdf:about="">
        <dc:title>cloud-storage</dc:title>
      </cc:Work>
    </rdf:RDF>
  </metadata>
  <g
     id="g8331"
     transform="translate(830.91207,396.83578)">
    <g
       id="Canvas"
       transform="matrix(1.8373399,0,0,1.8373399,-3126.956,-4592.9396)"
       figma:type="canvas">
      <g
         id="g1176"
         style="mix-blend-mode:normal"
         figma:type="group"
         transform="translate(0,-30.096099)">
        <g
           id="g1174"
           style="mix-blend-mode:normal"
           figma:type="group">
          <g
             id="Group"
             style="mix-blend-mode:normal"
             figma:type="group">
            <g
               id="g"
               style="mix-blend-mode:normal"
               figma:type="group">
              <g
                 id="path"
                 style="mix-blend-mode:normal"
                 figma:type="group">
                <g
                   id="path9 fill"
                   style="mix-blend-mode:normal"
                   figma:type="vector">
                  <path
                     id="use1111"
                     d="m 1642.285,2479.8353 c 0,1.5581 -0.1247,2.0655 -0.4452,2.4394 -0.3567,0.3213 -0.8198,0.4989 -1.2998,0.4986 l 0.1246,0.8903 c 0.7442,0.01 1.4664,-0.2528 2.0299,-0.7389 0.3033,-0.3698 0.5289,-0.7969 0.6635,-1.2558 0.1346,-0.4588 0.1754,-0.9401 0.12,-1.4151 v -5.8938 h -1.193 v 5.4397 z"
                     style="mix-blend-mode:normal;fill:#4e4e4e" />
                </g>
              </g>
              <g
                 id="g1118"
                 style="mix-blend-mode:normal"
                 figma:type="group">
                <g
                   id="path10 fill"
                   style="mix-blend-mode:normal"
                   figma:type="vector">
                  <path
                     id="use1115"
                     d="m 1651.182,2479.1331 c 0,0.6677 0,1.2642 0.053,1.7806 h -1.0595 l -0.071,-1.0595 c -0.2216,0.3749 -0.5385,0.6844 -0.9185,0.897 -0.38,0.2127 -0.8095,0.321 -1.2449,0.3138 -1.0328,0 -2.2614,-0.5609 -2.2614,-2.8489 v -3.8016 h 1.193 v 3.5612 c 0,1.2375 0.3828,2.0655 1.4601,2.0655 0.2216,0 0.4415,-0.04 0.6467,-0.1232 0.2053,-0.084 0.3917,-0.2076 0.5484,-0.3643 0.1567,-0.1568 0.2806,-0.3432 0.3643,-0.5484 0.084,-0.2053 0.1256,-0.4251 0.1233,-0.6468 v -3.9885 h 1.1929 v 4.7275 z"
                     style="mix-blend-mode:normal;fill:#4e4e4e" />
                </g>
              </g>
              <g
                 id="g1123"
                 style="mix-blend-mode:normal"
                 figma:type="group">
                <g
                   id="path11 fill"
                   style="mix-blend-mode:normal"
                   figma:type="vector">
                  <path
                     id="use1120"
                     d="m 1653.4434,2476.5326 c 0,-0.8279 0,-1.5046 -0.053,-2.1189 h 1.0684 l 0.053,1.1129 c 0.238,-0.4021 0.5807,-0.732 0.9915,-0.9546 0.4107,-0.2227 0.8742,-0.3297 1.3411,-0.3096 1.5847,0 2.7777,1.3265 2.7777,3.303 0,2.3326 -1.4334,3.49 -2.9825,3.49 -0.3965,0.018 -0.7909,-0.067 -1.1449,-0.2467 -0.3541,-0.1793 -0.6558,-0.447 -0.8761,-0.7772 v 0 3.5612 h -1.1752 v -7.0333 z m 1.1752,1.7361 c 0,0.1616 0.021,0.3225 0.053,0.4808 0.101,0.3953 0.331,0.7456 0.6535,0.9956 0.3225,0.2499 0.7191,0.3852 1.1271,0.3843 1.2553,0 1.9943,-1.0238 1.9943,-2.5106 0,-1.2998 -0.6944,-2.4127 -1.9498,-2.4127 -0.4967,0.041 -0.9616,0.2612 -1.3074,0.6201 -0.3459,0.3589 -0.5489,0.8317 -0.5711,1.3297 z"
                     style="mix-blend-mode:normal;fill:#4e4e4e" />
                </g>
              </g>
              <g
                 id="g1128"
                 style="mix-blend-mode:normal"
                 figma:type="group">
                <g
                   id="path12 fill"
                   style="mix-blend-mode:normal"
                   figma:type="vector">
                  <path
                     id="use1125"
                     d="m 1661.7476,2474.4078 1.4334,3.8372 c 0.1514,0.4273 0.3116,0.9437 0.4185,1.3265 0.1246,-0.3917 0.2581,-0.8903 0.4184,-1.3532 l 1.2998,-3.8105 h 1.2554 l -1.7806,4.6296 c -0.8903,2.2257 -1.4334,3.3742 -2.2525,4.0686 -0.4125,0.3768 -0.9155,0.6406 -1.4601,0.7657 l -0.2938,-0.9972 c 0.3808,-0.1251 0.7343,-0.3215 1.0417,-0.5787 0.4343,-0.3539 0.779,-0.8054 1.006,-1.3176 0.049,-0.089 0.082,-0.1851 0.098,-0.2849 -0.01,-0.1074 -0.037,-0.2126 -0.08,-0.3116 l -2.4216,-5.9917 h 1.2998 z"
                     style="mix-blend-mode:normal;fill:#4e4e4e" />
                </g>
              </g>
              <g
                 id="g1133"
                 style="mix-blend-mode:normal"
                 figma:type="group">
                <g
                   id="path13 fill"
                   style="mix-blend-mode:normal"
                   figma:type="vector">
                  <path
                     id="use1130"
                     d="m 1669.7401,2472.54 v 1.8696 h 1.7094 v 0.8903 h -1.7094 v 3.5078 c 0,0.8013 0.2315,1.2642 0.8903,1.2642 0.234,0 0.4675,-0.023 0.6945,-0.08 l 0.053,0.8903 c -0.3404,0.1179 -0.6995,0.1722 -1.0595,0.1602 -0.2384,0.015 -0.4772,-0.022 -0.7,-0.1079 -0.2229,-0.086 -0.4244,-0.2193 -0.5909,-0.3906 -0.3626,-0.4851 -0.5281,-1.0895 -0.463,-1.6916 v -3.5612 h -1.0149 v -0.8903 h 1.0327 v -1.5847 z"
                     style="mix-blend-mode:normal;fill:#4e4e4e" />
                </g>
              </g>
              <g
                 id="g1138"
                 style="mix-blend-mode:normal"
                 figma:type="group">
                <g
                   id="path14 fill"
                   style="mix-blend-mode:normal"
                   figma:type="vector">
                  <path
                     id="use1135"
                     d="m 1673.6472,2477.869 c -0.024,0.3019 0.017,0.6055 0.1221,0.8898 0.1047,0.2842 0.2698,0.5423 0.484,0.7565 0.2142,0.2142 0.4723,0.3793 0.7566,0.484 0.2842,0.1046 0.5878,0.1463 0.8897,0.1222 0.6107,0.014 1.2175,-0.1017 1.7806,-0.3384 l 0.2048,0.8903 c -0.6911,0.2847 -1.4341,0.4212 -2.1812,0.4007 -0.4356,0.03 -0.8724,-0.035 -1.2806,-0.1898 -0.4081,-0.1549 -0.778,-0.3962 -1.0841,-0.7074 -0.3062,-0.3112 -0.5414,-0.685 -0.6895,-1.0956 -0.1481,-0.4107 -0.2057,-0.8485 -0.1687,-1.2835 0,-1.9587 1.1663,-3.5078 3.0715,-3.5078 2.1367,0 2.6709,1.8696 2.6709,3.0626 0.011,0.1838 0.011,0.3682 0,0.552 h -4.6028 z m 3.4899,-0.8903 c 0.034,-0.238 0.017,-0.4806 -0.05,-0.7115 -0.067,-0.2309 -0.1834,-0.4447 -0.3403,-0.6269 -0.1569,-0.1822 -0.3511,-0.3287 -0.5694,-0.4296 -0.2183,-0.1008 -0.4557,-0.1537 -0.6962,-0.155 -0.4892,0.035 -0.9475,0.2522 -1.2851,0.6079 -0.3376,0.3558 -0.5302,0.8248 -0.54,1.3151 z"
                     style="mix-blend-mode:normal;fill:#4e4e4e" />
                </g>
              </g>
              <g
                 id="g1143"
                 style="mix-blend-mode:normal"
                 figma:type="group">
                <g
                   id="path15 fill"
                   style="mix-blend-mode:normal"
                   figma:type="vector">
                  <path
                     id="use1140"
                     d="m 1680.0334,2476.4323 c 0,-0.7657 0,-1.4245 -0.053,-2.0299 h 1.0684 v 1.2731 h 0.053 c 0.1121,-0.3929 0.3438,-0.7412 0.6629,-0.9965 0.3191,-0.2552 0.7097,-0.4048 1.1177,-0.4279 0.1123,-0.015 0.226,-0.015 0.3383,0 v 1.1128 c -0.1361,-0.016 -0.2735,-0.016 -0.4096,0 -0.4041,0.016 -0.7887,0.1779 -1.082,0.4565 -0.2933,0.2785 -0.4751,0.6542 -0.5116,1.057 -0.033,0.1822 -0.051,0.3668 -0.053,0.552 v 3.4633 h -1.1752 v -4.4515 z"
                     style="mix-blend-mode:normal;fill:#4e4e4e" />
                </g>
              </g>
            </g>
          </g>
          <g
             id="g1172"
             style="mix-blend-mode:normal"
             figma:type="group">
            <g
               id="g1150"
               style="mix-blend-mode:normal"
               figma:type="group">
              <g
                 id="path16 fill"
                 style="mix-blend-mode:normal"
                 figma:type="vector">
                <path
                   id="use1147"
                   d="m 1679.5106,2456.5257 c 0.037,0.5981 -0.1057,1.1935 -0.4088,1.7105 -0.303,0.5169 -0.7531,0.9319 -1.2929,1.1922 -0.5397,0.2602 -1.1447,0.3539 -1.7379,0.2691 -0.5932,-0.085 -1.1477,-0.3442 -1.593,-0.7453 -0.4452,-0.4011 -0.7609,-0.9256 -0.907,-1.5067 -0.146,-0.5812 -0.1158,-1.1927 0.087,-1.7566 0.2027,-0.5639 0.5686,-1.0547 1.0513,-1.4099 0.4826,-0.3551 1.06,-0.5586 1.6586,-0.5845 0.3926,-0.022 0.7855,0.035 1.1562,0.1654 0.3707,0.1308 0.7119,0.3336 1.0039,0.5967 0.2921,0.2631 0.5293,0.5813 0.6979,0.9364 0.1687,0.3551 0.2654,0.74 0.2848,1.1327 z"
                   style="mix-blend-mode:normal;fill:#767677" />
              </g>
            </g>
            <g
               id="g1155"
               style="mix-blend-mode:normal"
               figma:type="group">
              <g
                 id="path17 fill"
                 style="mix-blend-mode:normal"
                 figma:type="vector">
                <path
                   id="use1152"
                   d="m 1661.9062,2491.3924 c -8.0126,0 -15.0549,-2.8757 -18.6962,-7.1224 1.4128,3.8204 3.9622,7.1163 7.3048,9.444 3.3426,2.3278 7.3182,3.5756 11.3914,3.5756 4.0733,0 8.0488,-1.2478 11.3915,-3.5756 3.3426,-2.3277 5.8919,-5.6236 7.3048,-9.444 -3.6324,4.2467 -10.648,7.1224 -18.6963,7.1224 z"
                   style="mix-blend-mode:normal;fill:#f37726" />
              </g>
            </g>
            <g
               id="g1160"
               style="mix-blend-mode:normal"
               figma:type="group">
              <g
                 id="path18 fill"
                 style="mix-blend-mode:normal"
                 figma:type="vector">
                <path
                   id="use1157"
                   d="m 1661.9062,2463.7773 c 8.0127,0 15.055,2.8756 18.6963,7.1223 -1.4129,-3.8204 -3.9622,-7.1163 -7.3048,-9.444 -3.3427,-2.3277 -7.3182,-3.5756 -11.3915,-3.5756 -4.0732,0 -8.0488,1.2479 -11.3914,3.5756 -3.3426,2.3277 -5.892,5.6236 -7.3048,9.444 3.6413,-4.2556 10.648,-7.1223 18.6962,-7.1223 z"
                   style="mix-blend-mode:normal;fill:#f37726" />
              </g>
            </g>
            <g
               id="g1165"
               style="mix-blend-mode:normal"
               figma:type="group">
              <g
                 id="path19 fill"
                 style="mix-blend-mode:normal"
                 figma:type="vector">
                <path
                   id="use1162"
                   d="m 1650.8758,2499.6566 c 0.047,0.7533 -0.1314,1.5036 -0.5123,2.1553 -0.381,0.6516 -0.9473,1.1751 -1.6268,1.5037 -0.6796,0.3286 -1.4415,0.4475 -2.1889,0.3416 -0.7473,-0.106 -1.4462,-0.4321 -2.0076,-0.9367 -0.5614,-0.5046 -0.9598,-1.1649 -1.1446,-1.8967 -0.1847,-0.7319 -0.1474,-1.5022 0.1072,-2.2128 0.2546,-0.7106 0.715,-1.3293 1.3224,-1.7773 0.6075,-0.448 1.3347,-0.705 2.0887,-0.7383 0.494,-0.026 0.9884,0.045 1.4549,0.2094 0.4665,0.1647 0.8959,0.4197 1.2638,0.7504 0.368,0.3307 0.6671,0.7306 0.8804,1.177 0.2133,0.4464 0.3366,0.9304 0.3628,1.4244 z"
                   style="mix-blend-mode:normal;fill:#9e9e9e" />
              </g>
            </g>
            <g
               id="g1170"
               style="mix-blend-mode:normal"
               figma:type="group">
              <g
                 id="path20 fill"
                 style="mix-blend-mode:normal"
                 figma:type="vector">
                <path
                   id="use1167"
                   d="m 1644.1206,2462.8094 c -0.4317,0.012 -0.8574,-0.1041 -1.2234,-0.3334 -0.366,-0.2293 -0.656,-0.5618 -0.8336,-0.9555 -0.1775,-0.3937 -0.2347,-0.8312 -0.1643,-1.2573 0.07,-0.4261 0.2652,-0.822 0.5599,-1.1377 0.2948,-0.3157 0.6763,-0.5372 1.0966,-0.6366 0.4203,-0.099 0.8606,-0.072 1.2656,0.078 0.405,0.1501 0.7566,0.4166 1.0105,0.766 0.2539,0.3494 0.3988,0.7661 0.4165,1.1977 0.017,0.5835 -0.1971,1.1501 -0.5955,1.5768 -0.3984,0.4268 -0.949,0.6791 -1.5323,0.7023 z"
                   style="mix-blend-mode:normal;fill:#616262" />
              </g>
            </g>
          </g>
        </g>
      </g>
    </g>
    <text
       xml:space="preserve"
       transform="matrix(6.1433467,0,0,6.1433467,26.636829,-155.65073)"
       id="text2879"
       style="font-size:3.77953px;line-height:1.25;font-family:sans-serif;text-align:center;white-space:pre;shape-inside:url(#rect2881)"
       x="9.1553946"
       y="0"><tspan
         x="-40.911622"
         y="9.012633"
         id="tspan83832">Jupyter
</tspan><tspan
         x="-43.077285"
         y="13.737046"
         id="tspan83834">Container</tspan></text>
  </g>
  <rect
     style="fill:#cccccc;stroke:none;stroke-width:0.919534;stroke-linejoin:bevel;stroke-miterlimit:4;stroke-dasharray:none;stroke-dashoffset:0;stop-color:#000000"
     id="rect23751-1-3-9"
     width="140.95032"
     height="41.714367"
     x="833.74353"
     y="223.09744"
     ry="0" />
  <text
     xml:space="preserve"
     transform="matrix(6.1435,0,0,6.1435,488.03829,362.4378)"
     id="text12810"
     style="font-size:2.64567px;line-height:1.25;font-family:sans-serif;white-space:pre;shape-inside:url(#rect12812)"><tspan
       x="57.042969"
       y="-20.244478"
       id="tspan83836">user: jovyan
</tspan><tspan
       x="57.042969"
       y="-16.937391"
       id="tspan83838">privileged: false
</tspan></text>
  <path
     d="m 764.50884,110.10591 c -1.76038,-29.313153 -21.7574,-53.701203 -48.79593,-61.988793 16.37739,-7.65465 27.75058,-24.28918 27.75058,-43.57415 0,-26.54403 -21.52003,-48.06406 -48.06406,-48.06406 -26.54403,0 -48.06409,21.52003 -48.06409,48.06406 0,19.28497 11.37319,35.9195 27.77038,43.57415 -27.03853,8.28759 -47.03556,32.67564 -48.79593,61.988793 -0.13849,2.27464 1.66147,4.21304 3.9559,4.21304 v 0 c 2.07683,0 3.81742,-1.62192 3.95588,-3.69877 1.87905,-32.141623 28.56154,-57.617553 61.17786,-57.617553 32.61632,0 59.29878,25.47593 61.19762,57.617553 0.11859,2.07685 1.85926,3.69877 3.95588,3.69877 2.29444,0 4.09434,-1.9384 3.95591,-4.21304 z M 655.24713,4.542967 c 0,-22.17276 17.97951,-40.15228 40.1523,-40.15228 22.17276,0 40.15227,17.97952 40.15227,40.15228 0,22.17279 -17.97951,40.1523 -40.15227,40.1523 -22.17279,0 -40.1523,-17.97951 -40.1523,-40.1523 z"
     id="path2"
     style="overflow:hidden;fill:currentColor;stroke-width:0.208611" />
  <g
     id="g23693"
     transform="translate(837.05325,396.83577)">
    <rect
       style="fill:none;stroke:#000000;stroke-width:3.07175;stroke-linejoin:bevel;stroke-miterlimit:4;stroke-dasharray:none;stroke-dashoffset:0;stop-color:#000000"
       id="rect1931"
       width="261.30862"
       height="150.19141"
       x="-272.29825"
       y="-169.13066"
       ry="35.189907" />
  </g>
  <g
     id="g8335"
     transform="translate(346.95785,293.82346)">
    <g
       id="g23682">
      <rect
         style="fill:none;stroke:#000000;stroke-width:3.07175;stroke-linejoin:bevel;stroke-miterlimit:4;stroke-dasharray:none;stroke-dashoffset:0;stop-color:#000000"
         id="rect1931-2"
         width="261.30862"
         height="150.19141"
         x="-267.41397"
         y="-105.02457"
         ry="35.189907"
         transform="translate(64.70572,38.906223)" />
      <g
         id="g23675">
        <text
           xml:space="preserve"
           transform="matrix(6.1433467,0,0,6.1433467,83.559046,-52.48422)"
           id="text2879-7"
           style="font-size:3.77953px;line-height:1.25;font-family:sans-serif;text-align:center;white-space:pre;shape-inside:url(#rect2881-4)"
           x="9.1553946"
           y="0"><tspan
             x="-42.7451"
             y="9.012633"
             id="tspan83840">REST API
</tspan><tspan
             x="-43.077285"
             y="13.737046"
             id="tspan83842">Container</tspan></text>
        <path
           d="m -18.591467,54.792478 c -1.369895,-0.163404 -2.806737,-0.374325 -3.191862,-0.469347 a 34.60947,34.60947 0 0 0 -1.70967,-0.359931 25.945225,25.945225 0 0 1 -1.945784,-0.455673 c -2.983822,-0.855195 -3.197622,-0.92502 -5.447188,-1.845003 -2.069599,-0.843678 -5.882702,-2.814654 -7.187089,-3.711603 -0.357053,-0.247632 -0.691067,-0.447033 -0.742178,-0.447033 -0.05039,0 -0.885429,-0.587406 -1.8558,-1.305108 -6.169209,-4.566078 -10.800793,-10.109007 -14.147427,-16.936167 -0.575888,-1.172652 -1.045957,-2.212851 -1.045957,-2.310753 0,-0.09646 -0.103661,-0.363528 -0.230356,-0.588126 -0.261309,-0.46719 -0.633478,-1.473555 -0.933659,-2.513754 a 14.431051,14.431051 0 0 0 -0.449913,-1.305108 c -0.140373,-0.331137 -0.253392,-0.734256 -0.253392,-0.896946 0,-0.163407 -0.140373,-0.694668 -0.311699,-1.184172 -0.171327,-0.485904 -0.309541,-1.059636 -0.309541,-1.274154 0,-0.213078 -0.134613,-0.950214 -0.300901,-1.638402 -0.404562,-1.698873 -0.835039,-6.099381 -0.835039,-8.5656244 0,-2.4633661 0.430477,-6.8638735 0.835039,-8.56202656 0.165568,-0.68890651 0.300901,-1.43972074 0.300901,-1.67007634 0,-0.2310759 0.10438,-0.6838692 0.230356,-1.0078053 0.129575,-0.3224988 0.295143,-0.9019869 0.371448,-1.2871125 0.07918,-0.3851256 0.25915,-1.0488357 0.405282,-1.4793132 l 0.424718,-1.2424791 c 0.3117,-0.930781 0.601084,-1.7183089 0.739297,-2.0249701 0.07918,-0.1713264 0.388005,-0.8710311 0.688907,-1.5548985 0.486626,-1.104988 1.529704,-3.188983 2.139426,-4.279573 0.222437,-0.399524 0.306661,-0.531978 1.510268,-2.412975 1.906912,-2.985982 5.165722,-6.701184 8.199216,-9.349552 1.068993,-0.933659 4.640223,-3.644656 4.800752,-3.644656 0.04464,0 0.381527,-0.20228 0.750815,-0.449913 0.969652,-0.649314 1.920589,-1.200727 3.160189,-1.821967 a 38.195817,38.195817 0 0 0 1.321664,-0.686028 c 0.205161,-0.118056 0.590287,-0.295143 2.567745,-1.180572 0.435514,-0.194362 0.904864,-0.371448 2.257484,-0.844396 0.298021,-0.103661 0.896946,-0.323218 1.324543,-0.483747 0.430477,-0.159809 0.936538,-0.292263 1.125143,-0.292263 0.185724,0 0.674508,-0.129575 1.085549,-0.289385 0.410322,-0.160528 1.155377,-0.343373 1.658561,-0.405281 0.501022,-0.05903 1.166894,-0.199402 1.479313,-0.30954 0.30954,-0.10654 1.158976,-0.244753 1.886756,-0.305941 a 52.241743,52.241743 0 0 0 2.836972,-0.334735 c 1.934985,-0.283626 6.141852,-0.283626 8.0566831,0 a 54.003964,54.003964 0 0 0 2.721793,0.320337 c 0.686025,0.05687 1.56066,0.200122 1.945785,0.318179 0.385125,0.115178 1.051716,0.25915 1.479312,0.3117 0.427599,0.05687 1.147458,0.233955 1.599531,0.396643 0.453513,0.165568 0.96749398,0.298023 1.14457798,0.298023 0.177081,0 0.542775,0.09862 0.809844,0.222437 0.269949,0.120936 0.84079802,0.323217 1.27127702,0.449913 0.427596,0.129575 1.1611324,0.385125 1.6340824,0.573729 0.46935,0.187883 1.099227,0.435516 1.40013,0.547814 0.554292,0.20876 4.6503001,2.258203 5.2074721,2.607336 4.5214474,2.819695 6.8473174,4.661819 9.9743914,7.892555 3.770634,3.897326 6.273591,7.608929 8.821179,13.0726733 0.179955,0.3858444 0.45495,0.956694 0.6126,1.2655155 0.154779,0.3124191 0.284346,0.6781077 0.284346,0.8134431 0,0.1367727 0.129585,0.5470926 0.289383,0.9135021 0.433356,0.9955678 0.804084,2.1286288 0.979011,2.9946229 0.08638,0.424716 0.246912,0.9502155 0.356331,1.1668938 0.110142,0.2159574 0.238995,0.7652121 0.290103,1.2151248 0.05039,0.4491936 0.199401,1.18633053 0.326097,1.63336443 0.734259,2.54182957 1.099227,10.03054107 0.655074,13.34262207 -0.131739,0.984048 -0.280746,2.17398 -0.331137,2.64333 -0.08495,0.804084 -0.509661,2.882322 -0.872469,4.279572 l -0.374331,1.479312 c -0.705462,2.848491 -2.448963,6.906345 -4.577592,10.660422 -0.843678,1.490112 -3.672012,5.519892 -4.20615,5.992119 -0.04823,0.04174 -0.287223,0.32394 -0.529095,0.62124 -0.241875,0.300903 -1.017885,1.141701 -1.720467,1.86732 -3.096123,3.196905 -5.59332,5.173641 -9.9772744,7.896153 -0.519738,0.32322 -4.9288861,2.477043 -5.7531271,2.811777 -0.427596,0.17133 -1.141701,0.460713 -1.585854,0.640677 -0.4412764,0.177798 -0.9336574,0.326817 -1.0884304,0.329697 -0.154758,0.0021 -0.56220902,0.140364 -0.90558602,0.30594 -0.342651,0.165561 -0.778887,0.303783 -0.972531,0.30666 -0.191481,0.003 -0.75081298,0.13821 -1.24319998,0.300903 -0.491664,0.165561 -1.175532,0.343374 -1.518906,0.395925 -0.342654,0.05398 -1.07619,0.200118 -1.633362,0.323934 -0.556455,0.123816 -2.238768,0.365691 -3.733919,0.537018 a 42.514984,42.514984 0 0 1 -10.0384611,-0.02232 z m 3.385506,-8.99826 c 0.215959,-0.168453 0.438395,-0.503901 0.497425,-0.739296 C -14.57897,44.534464 6.3358766,2.6047265 6.7296416,2.079227 c 0.331854,-0.444153 0.362808,-1.15537685 0.059031,-1.40588796 -0.15981,-0.1346163 -2.1624601,-0.1770801 -7.50814852,-0.1684545 -4.00962598,0.008661 -7.38073298,0.011427 -7.49087198,0.008661 -0.162685,-0.005712 -0.19652,-2.68508074 -0.179955,-14.16110254 0.01143,-7.786736 -0.02519,-14.228771 -0.08135,-14.318033 -0.05614,-0.0907 -0.275706,-0.163409 -0.489505,-0.163409 -0.300902,0 -0.441274,0.129576 -0.626279,0.581648 -0.349133,0.840798 -1.3137471,2.74987 -6.0093981,11.866907 a 2558.7952,2558.7952 0 0 0 -2.919037,5.679702 c -0.832159,1.6283252 -2.145185,4.1845527 -2.913276,5.6797032 a 6299.6809,6299.6809 0 0 0 -6.189364,12.0641473 c -3.551075,6.9365795 -3.980831,7.7637005 -4.133441,7.9465445 -0.295143,0.357051 -0.455673,1.180572 -0.289385,1.490112 0.151167,0.283626 0.452793,0.295143 7.949425,0.283626 4.285331,-0.005 7.819847,0.01731 7.856561,0.05039 0.09862,0.101496 0.06191,26.85801 -0.03959,27.495807 -0.06694,0.418956 -0.02232,0.640677 0.169174,0.832158 0.331135,0.331857 0.421837,0.328977 0.899825,-0.04751 z m 0,0"
           fill="#049688"
           id="path856"
           style="stroke-width:0.719859" />
      </g>
    </g>
  </g>
  <rect
     style="fill:#cccccc;stroke:none;stroke-width:0.899852;stroke-linejoin:bevel;stroke-miterlimit:4;stroke-dasharray:none;stroke-dashoffset:0;stop-color:#000000"
     id="rect23751-1-3"
     width="136.57001"
     height="41.229031"
     x="5.6843419e-14"
     y="223.09805"
     ry="0" />
  <text
     xml:space="preserve"
     transform="matrix(6.1435,0,0,6.1435,-455.35624,361.95368)"
     id="text12810-6"
     style="font-size:2.64567px;line-height:1.25;font-family:sans-serif;text-align:end;white-space:pre;shape-inside:url(#rect12812-1)"
     x="20.943165"
     y="0"><tspan
       x="82.132025"
       y="-20.244478"
       id="tspan83844">user: root
</tspan><tspan
       x="74.880977"
       y="-16.937391"
       id="tspan83846">privileged: true
</tspan></text>
  <path
     style="fill:none;stroke:#000000;stroke-width:1.84305;stroke-linecap:butt;stroke-linejoin:miter;stroke-miterlimit:4;stroke-dasharray:none;stroke-opacity:1;marker-end:url(#Arrow2Lend)"
     d="M 563.07604,305.24296 H 408.00037"
     id="path21263" />
  <text
     xml:space="preserve"
     transform="matrix(6.1435,0,0,6.1435,-59.297956,417.59877)"
     id="text12810-6-9"
     style="font-size:2.64567px;line-height:1.25;font-family:sans-serif;text-align:end;white-space:pre;shape-inside:url(#rect12812-1-8)"
     x="20.943165"
     y="0"><tspan
       x="81.159276"
       y="-20.244478"
       id="tspan83848">1. Request</tspan></text>
  <text
     xml:space="preserve"
     transform="matrix(6.1435,0,0,6.1435,411.66357,319.89578)"
     id="text27441"
     style="font-size:0.0944882px;line-height:1.25;font-family:sans-serif;white-space:pre;shape-inside:url(#rect27443)" />
  <rect
     style="fill:#cccccc;stroke:none;stroke-width:1.44959;stroke-linejoin:bevel;stroke-miterlimit:4;stroke-dasharray:none;stroke-dashoffset:0;stop-color:#000000"
     id="rect23751"
     width="170.94958"
     height="85.474792"
     x="399.68182"
     y="613.18701"
     ry="0" />
  <text
     xml:space="preserve"
     transform="matrix(5.7247892,0,0,6.1435,458.57193,295.0257)"
     id="text29757"
     style="font-size:2.26772px;line-height:1.25;font-family:sans-serif;white-space:pre;shape-inside:url(#rect29759)"
     x="14.581285"
     y="0"><tspan
       x="-9.9375"
       y="55.137269"
       id="tspan83850">{
</tspan><tspan
       x="-9.9375"
       y="57.971917"
       id="tspan83852">  &quot;name&quot;: &quot;data-mounts&quot;,
</tspan><tspan
       x="-9.9375"
       y="60.806565"
       id="tspan83854">  &quot;emptyDir&quot;: {}
</tspan><tspan
       x="-9.9375"
       y="63.641213"
       id="tspan83856">}</tspan></text>
  <path
     d="m 531.23286,603.67382 c 0,11.74059 -20.64569,21.26597 -46.07624,21.26597 -25.43055,0 -46.07625,-9.52538 -46.07625,-21.26597 v -10.18994 c 2.79116,2.70255 6.4241,5.13928 10.89881,7.22157 9.48107,4.38611 21.97482,6.77853 35.17744,6.77853 13.20262,0 25.69637,-2.43673 35.17744,-6.77853 4.47471,-2.08229 8.10765,-4.47471 10.8988,-7.17726 z m -10.8988,-26.58245 c -9.48107,4.38611 -21.97482,6.77853 -35.17744,6.77853 -13.20262,0 -25.69637,-2.43673 -35.17744,-6.77853 -4.47471,-2.08229 -8.15195,-4.51901 -10.89881,-7.22156 v 10.45576 0 c 0.35444,11.60767 20.82292,20.95583 46.07625,20.95583 25.43055,0 46.07624,-9.52538 46.07624,-21.26596 v -10.14563 c -2.79115,2.70255 -6.42409,5.13927 -10.8988,7.22156 z m -35.17744,-65.57005 c -25.43055,0 -46.07625,9.52538 -46.07625,21.26597 0,11.74058 20.6457,21.26596 46.07625,21.26596 25.43055,0 46.07624,-9.52538 46.07624,-21.26596 0,-11.74059 -20.64569,-21.26597 -46.07624,-21.26597 z m 35.17744,41.95598 c -9.48107,4.3418 -21.97482,6.77852 -35.17744,6.77852 -13.20262,0 -25.69637,-2.43672 -35.17744,-6.77852 -4.47471,-2.0823 -8.15195,-4.51902 -10.89881,-7.22157 v 10.18994 c 0,11.74058 20.6457,21.26596 46.07625,21.26596 25.43055,0 46.07624,-9.52538 46.07624,-21.26596 v -10.14564 c -2.79115,2.65825 -6.42409,5.09497 -10.8988,7.17727 z"
     id="path942"
     style="stroke-width:0.443041" />
  <rect
     style="fill:#cccccc;stroke:none;stroke-width:1.76481;stroke-linejoin:bevel;stroke-miterlimit:4;stroke-dasharray:none;stroke-dashoffset:0;stop-color:#000000"
     id="rect23751-1"
     width="166.56258"
     height="130.02718"
     x="271.31702"
     y="399.34155"
     ry="0" />
  <text
     xml:space="preserve"
     transform="matrix(5.7247892,0,0,6.1435,328.20696,77.334457)"
     id="text29757-6"
     style="font-size:2.26772px;line-height:1.25;font-family:sans-serif;white-space:pre;shape-inside:url(#rect29759-5)"
     x="14.581285"
     y="0"><tspan
       x="-9.9375"
       y="55.137269"
       id="tspan83858">{
</tspan><tspan
       x="-9.9375"
       y="57.971917"
       id="tspan83860">  name&quot;: &quot;data-mounts&quot;,
</tspan><tspan
       x="-9.9375"
       y="60.806565"
       id="tspan83862">  &quot;mountPath&quot;:
</tspan><tspan
       x="-9.9375"
       y="63.641213"
       id="tspan83864">      &quot;/mnt/data_mounts&quot;,
</tspan><tspan
       x="-9.9375"
       y="66.475862"
       id="tspan83866">  &quot;mountPropagation&quot;:
</tspan><tspan
       x="-9.9375"
       y="69.31051"
       id="tspan83868">      &quot;Bidirectional&quot;
</tspan><tspan
       x="-9.9375"
       y="72.145158"
       id="tspan83870">}</tspan></text>
  <g
     id="g64088"
     transform="translate(411.66357,332.72969)">
    <rect
       style="fill:#cccccc;stroke:none;stroke-width:1.83972;stroke-linejoin:bevel;stroke-miterlimit:4;stroke-dasharray:none;stroke-dashoffset:0;stop-color:#000000"
       id="rect23751-1-4"
       width="166.56258"
       height="141.30051"
       x="137.73207"
       y="57.691086"
       ry="0" />
    <text
       xml:space="preserve"
       transform="matrix(5.7247892,0,0,6.1435,197.40799,-267.38667)"
       id="text29757-6-9"
       style="font-size:2.26772px;line-height:1.25;font-family:sans-serif;white-space:pre;shape-inside:url(#rect29759-5-0)"
       x="14.581285"
       y="0"><tspan
         x="-9.9375"
         y="55.137269"
         id="tspan83872">{
</tspan><tspan
         x="-9.9375"
         y="57.971917"
         id="tspan83874">  name&quot;: &quot;data-mounts&quot;,
</tspan><tspan
         x="-9.9375"
         y="60.806565"
         id="tspan83876">  &quot;mountPath&quot;:
</tspan><tspan
         x="-9.9375"
         y="63.641213"
         id="tspan83878">      &quot;/home/jovyan/
</tspan><tspan
         x="-9.9375"
         y="66.475862"
         id="tspan83880">        data_mounts&quot;,
</tspan><tspan
         x="-9.9375"
         y="69.31051"
         id="tspan83882">  &quot;mountPropagation&quot;:
</tspan><tspan
         x="-9.9375"
         y="72.145158"
         id="tspan83884">      &quot;HostToContainer&quot;
</tspan><tspan
         x="-9.9375"
         y="74.979806"
         id="tspan83886">}</tspan></text>
  </g>
  <path
     style="fill:none;stroke:#000000;stroke-width:3.37171;stroke-linecap:butt;stroke-linejoin:miter;stroke-miterlimit:4;stroke-dasharray:3.37171, 3.37171;stroke-dashoffset:0;stroke-opacity:1"
     d="M 350.33463,381.43683 485.2032,516.30541"
     id="path44446" />
  <path
     style="fill:none;stroke:#000000;stroke-width:3.37171;stroke-linecap:butt;stroke-linejoin:miter;stroke-miterlimit:4;stroke-dasharray:3.37171, 3.37171;stroke-dashoffset:0;stroke-opacity:1"
     d="M 622.45594,381.43683 487.58736,516.30541"
     id="path44446-2" />
  <text
     xml:space="preserve"
     transform="matrix(6.1435,0,0,6.1435,411.66357,319.89578)"
     id="text66674"
     style="font-size:0.0944882px;line-height:1.25;font-family:sans-serif;white-space:pre;shape-inside:url(#rect66676)" />
  <text
     xml:space="preserve"
     transform="matrix(6.1435,0,0,6.1435,399.37657,343.86087)"
     id="text68462"
     style="font-size:3.77953px;line-height:1.25;font-family:sans-serif;white-space:pre;shape-inside:url(#rect68464)"><tspan
       x="22.419922"
       y="37.928649"
       id="tspan83888">shared Volume</tspan></text>
  <g
     id="g70913"
     transform="translate(459.75055,301.59448)">
    <path
       class="cls-1"
       d="m -293.49796,268.26255 h 27.06371 c 4.85851,0 8.4694,3.43094 9.783,7.94757 0.39588,0.15594 0.79776,0.32389 1.19963,0.51584 a 16.428963,16.428963 0 0 1 7.61166,7.5037 v 0 a 12.728097,12.728097 0 0 1 2.12935,-0.16196 10.928649,10.928649 0 0 1 8.13951,3.53892 12.998015,12.998015 0 0 1 1.34359,1.73346 14.64751,14.64751 0 0 1 2.12334,7.97156 13.099983,13.099983 0 0 1 -2.33928,7.65965 12.140278,12.140278 0 0 1 -3.85681,3.29899 19.512018,19.512018 0 0 1 -5.19441,1.92541 l -0.36589,0.048 h -6.77792 l 0.13203,1.19963 c 0.23991,2.10536 0.50983,4.19871 0.71377,6.31607 0.14396,1.43356 0.24593,2.75915 0.28791,3.98877 a 21.809313,21.809313 0 0 1 -0.33589,5.29039 0.34789332,0.34789332 0 0 1 0,0.084 6.825907,6.825907 0 0 1 -6.79592,6.19609 h -42.22704 a 6.7899182,6.7899182 0 0 1 -4.88851,-2.07536 c -1.99738,-2.08135 -1.89542,-3.96479 -1.97339,-6.43602 -0.042,-1.22963 -0.096,-2.56122 -0.096,-3.88682 a 65.763836,65.763836 0 0 1 0.53984,-8.08552 l 3.5689,-34.37545 c 0.56383,-5.39835 4.46263,-10.19688 10.19688,-10.19688 z m 39.13201,22.75702 -2.15334,-2.46525 a 18.138439,18.138439 0 0 1 2.39926,-1.87143 16.79485,16.79485 0 0 1 2.12934,-1.19961 c 0.29391,-0.14996 0.59983,-0.28793 0.89374,-0.41388 a 13.135972,13.135972 0 0 0 -5.77623,-5.39835 14.065687,14.065687 0 0 0 -7.42573,-1.2896 13.423884,13.423884 0 0 0 -6.93387,2.70516 13.063994,13.063994 0 0 0 -4.79852,8.06754 l -0.20994,1.12165 -1.09767,0.17994 a 14.845449,14.845449 0 0 0 -2.89112,0.80376 9.5310776,9.5310776 0 0 0 -2.20732,1.19962 7.0538372,7.0538372 0 0 0 -1.39157,1.22963 7.5576828,7.5576828 0 0 0 -1.69748,4.93649 8.9192653,8.9192653 0 0 0 1.69748,5.12842 8.1694951,8.1694951 0 0 0 1.40357,1.51154 7.0178482,7.0178482 0 0 0 1.84144,1.10367 9.3811236,9.3811236 0 0 0 2.2613,0.59981 h 32.2821 a 16.470949,16.470949 0 0 0 4.12674,-1.51753 8.8652818,8.8652818 0 0 0 2.84312,-2.39927 9.806993,9.806993 0 0 0 1.68549,-5.72225 11.336524,11.336524 0 0 0 -1.6015,-6.1661 9.0992101,9.0992101 0 0 0 -1.0017,-1.3076 7.7076368,7.7076368 0 0 0 -5.75824,-2.49524 c -3.44295,-0.036 -6.05814,1.59551 -8.61935,3.68287 z m -5.29038,28.7012 h 5.48231 c -0.096,-1.52353 -0.26392,-3.26899 -0.47385,-5.05045 a 4.0067715,4.0067715 0 0 0 -1.47555,-0.27592 h -46.6117 a 4.0847476,4.0847476 0 0 0 -1.79945,0.42588 c -0.19795,1.40955 -0.43786,3.16102 -0.55183,4.90049 z m -40.23566,4.51062 h 11.20455 v 4.84651 h -11.20455 z"
       id="path997"
       style="stroke-width:0.599816" />
    <text
       xml:space="preserve"
       transform="matrix(6.1435,0,0,6.1435,-455.9754,130.2324)"
       id="text68462-2"
       style="font-size:3.77953px;line-height:1.25;font-family:sans-serif;white-space:pre;shape-inside:url(#rect68464-0)"><tspan
         x="22.419922"
         y="37.928649"
         id="tspan83890">external
</tspan><tspan
         x="22.419922"
         y="42.65306"
         id="tspan83892">storage</tspan></text>
  </g>
  <path
     style="fill:none;stroke:#000000;stroke-width:1.2287;stroke-linecap:butt;stroke-linejoin:miter;stroke-miterlimit:4;stroke-dasharray:none;stroke-opacity:1;marker-end:url(#Arrow2Lend)"
     d="m 179.66059,376.06492 v 192.9288"
     id="path70948" />
  <text
     xml:space="preserve"
     transform="matrix(0,-6.1435,6.1435,0,297.10273,941.8759)"
     id="text12810-6-9-9"
     style="font-size:2.64567px;line-height:0.95;font-family:sans-serif;text-align:center;white-space:pre;shape-inside:url(#rect12812-1-8-8)"
     x="11.267351"
     y="0"><tspan
       x="68.261432"
       y="-20.641329"
       id="tspan83894">2. rclone in
</tspan><tspan
       x="76.223633"
       y="-18.127943"
       id="tspan83896">
</tspan><tspan
       x="66.412176"
       y="-15.614557"
       id="tspan83898">shared volume</tspan></text>
  <path
     style="fill:none;stroke:#000000;stroke-width:1.44127;stroke-linecap:butt;stroke-linejoin:miter;stroke-miterlimit:4;stroke-dasharray:none;stroke-opacity:1;marker-end:url(#Arrow2Lend)"
     d="M 695.38767,69.189597 V 223.75987"
     id="path74442" />
  <text
     xml:space="preserve"
     transform="matrix(0,-6.1435,6.1435,0,811.27428,612.761)"
     id="text12810-6-9-0"
     style="font-size:2.64567px;line-height:0.95;font-family:sans-serif;text-align:center;white-space:pre;shape-inside:url(#rect12812-1-8-9)"
     x="11.173693"
     y="0"><tspan
       x="66.339834"
       y="-20.641329"
       id="tspan83900">normal jupyter
</tspan><tspan
       x="76.223633"
       y="-18.127943"
       id="tspan83902">
</tspan><tspan
       x="72.290653"
       y="-15.614557"
       id="tspan83904">usage</tspan></text>
</svg>
